<?xml version="1.0" standalone="no"?>
<!DOCTYPE svg PUBLIC "-//W3C//DTD SVG 20010904//EN"
 "http://www.w3.org/TR/2001/REC-SVG-20010904/DTD/svg10.dtd">
<svg version="1.0" xmlns="http://www.w3.org/2000/svg"
 width="906.000000pt" height="906.000000pt" viewBox="0 0 906.000000 906.000000"
 preserveAspectRatio="xMidYMid meet">
<metadata>
Created by potrace 1.14, written by Peter Selinger 2001-2017
</metadata>
<g transform="translate(0.000000,906.000000) scale(0.100000,-0.100000)"
fill="#000000" stroke="none">
<path d="M8606 8721 c-16 -11 -40 -32 -53 -48 -102 -118 -183 -211 -213 -243
-8 -9 -42 -47 -75 -85 -33 -39 -72 -83 -87 -100 -14 -16 -36 -41 -48 -55 -12
-14 -47 -54 -78 -89 -62 -69 -67 -75 -128 -147 -23 -27 -55 -63 -70 -79 -16
-17 -51 -57 -79 -89 -27 -32 -61 -71 -75 -86 -14 -15 -46 -51 -71 -81 -75 -87
-119 -137 -209 -239 -72 -82 -138 -157 -223 -254 -11 -12 -40 -45 -65 -75 -91
-105 -117 -135 -147 -167 -16 -18 -51 -57 -76 -86 -125 -143 -213 -244 -225
-258 -21 -22 -58 -65 -163 -186 -52 -60 -99 -113 -105 -119 -6 -5 -38 -41 -70
-80 -33 -38 -64 -74 -70 -80 -6 -5 -36 -39 -66 -75 -30 -36 -57 -67 -61 -70
-3 -3 -43 -48 -88 -100 -46 -52 -109 -124 -141 -160 -32 -36 -73 -83 -91 -105
-19 -22 -37 -42 -40 -45 -3 -3 -39 -43 -80 -90 -40 -47 -78 -90 -84 -96 -5 -6
-35 -40 -65 -74 -30 -35 -66 -76 -80 -91 -14 -15 -45 -51 -70 -80 -25 -30 -63
-73 -86 -96 -23 -24 -39 -43 -36 -43 3 0 -3 -8 -14 -19 -10 -10 -44 -47 -75
-82 -31 -35 -125 -143 -210 -239 -190 -216 -354 -380 -608 -610 -91 -82 -108
-98 -198 -181 -60 -56 -211 -173 -358 -279 -42 -30 -82 -60 -88 -65 -33 -29
-373 -249 -537 -347 -58 -34 -114 -68 -125 -75 -11 -7 -31 -18 -45 -25 -14 -7
-27 -15 -30 -18 -17 -17 -130 -73 -137 -67 -3 3 -7 30 -9 59 -4 49 -8 97 -18
208 -6 62 -19 155 -32 222 -6 33 -39 133 -45 138 -3 3 -10 16 -14 30 -4 14
-26 53 -48 88 -22 35 -38 65 -36 66 5 5 176 65 200 70 13 4 127 48 214 85 256
107 724 387 995 595 93 71 262 207 281 225 9 9 44 41 79 71 71 62 205 195 300
297 72 76 119 131 234 273 6 9 32 42 56 75 25 33 48 62 53 63 4 2 7 10 7 17 0
7 4 15 8 17 11 4 145 209 214 328 98 167 194 362 269 545 27 66 94 288 105
345 2 14 9 49 15 78 6 29 13 70 15 90 2 20 7 53 10 72 13 71 6 300 -11 376 -6
31 -42 147 -54 177 -15 39 -84 181 -91 187 -3 3 -22 29 -42 59 -88 128 -224
242 -374 316 -86 41 -189 80 -244 90 -22 4 -74 16 -90 20 -50 14 -61 22 -95
76 -44 70 -159 189 -182 189 -3 0 -14 6 -22 14 -22 20 -125 70 -194 95 -71 24
-188 48 -282 57 -137 12 -436 6 -555 -11 -58 -8 -107 -16 -132 -21 -15 -3 -39
-7 -55 -9 -15 -2 -71 -13 -123 -25 -52 -12 -102 -23 -110 -25 -8 -2 -15 -4
-15 -5 0 -1 -7 -3 -15 -5 -73 -15 -347 -106 -435 -144 -144 -64 -320 -150
-407 -200 -21 -11 -53 -29 -70 -39 -305 -174 -630 -423 -893 -687 -78 -77
-168 -171 -200 -210 -33 -38 -62 -72 -65 -75 -3 -3 -34 -41 -69 -85 -34 -44
-68 -87 -74 -95 -39 -49 -157 -222 -157 -230 0 -6 -4 -10 -9 -10 -5 0 -14 -13
-21 -30 -7 -16 -16 -30 -21 -30 -5 0 -9 -4 -9 -9 0 -5 -18 -38 -40 -72 -77
-125 -213 -390 -283 -555 -48 -113 -131 -343 -143 -396 -2 -10 -6 -28 -10 -40
-3 -13 -7 -34 -10 -47 -3 -13 -9 -32 -15 -43 -5 -10 -7 -18 -5 -18 3 0 2 -10
-3 -23 -5 -13 -12 -41 -16 -63 -8 -45 -13 -69 -15 -69 -1 0 -3 -12 -5 -26 -3
-25 -10 -66 -19 -119 -5 -25 -8 -54 -23 -185 -10 -86 -10 -504 0 -600 15 -157
18 -180 32 -245 3 -14 7 -36 10 -50 25 -132 56 -246 106 -380 21 -59 39 -113
39 -119 0 -6 5 -11 10 -11 6 0 10 -5 10 -11 0 -5 9 -30 20 -55 11 -24 25 -54
30 -66 6 -13 14 -30 20 -38 5 -8 36 -61 69 -116 144 -248 328 -456 587 -662
51 -42 277 -187 340 -220 50 -26 64 -29 76 -19 30 23 26 54 -8 68 -5 2 -67 40
-138 84 -70 44 -136 85 -147 91 -11 6 -31 21 -45 33 -13 11 -28 21 -32 21 -4
0 -18 10 -32 23 -14 12 -51 43 -82 70 -117 98 -338 337 -338 365 0 6 -4 12 -8
14 -13 4 -82 103 -82 116 0 6 -4 12 -8 14 -14 5 -106 177 -166 308 -41 90
-107 300 -132 420 -9 41 -18 84 -21 95 -8 36 -33 218 -40 285 -14 153 -6 555
12 651 2 10 6 44 10 76 7 70 59 327 81 403 59 206 137 420 212 583 23 48 42
89 42 92 5 17 125 232 186 335 84 141 254 387 299 434 6 6 29 34 50 61 121
153 354 392 513 525 16 14 49 42 73 62 142 121 453 344 549 393 19 10 37 21
40 24 11 14 321 173 410 211 89 37 303 115 345 125 6 1 17 5 25 8 13 6 217 58
285 73 20 5 61 12 100 18 11 2 34 6 50 9 200 40 570 51 740 22 17 -3 46 -8 65
-11 134 -22 306 -114 425 -226 66 -62 75 -98 23 -92 -54 7 -219 6 -273 0 -91
-11 -140 -18 -160 -23 -11 -2 -29 -6 -40 -8 -88 -16 -304 -84 -417 -130 -99
-41 -100 -41 -160 -69 -32 -15 -60 -27 -63 -27 -17 -1 -334 -175 -402 -221
-23 -15 -46 -28 -51 -28 -5 0 -17 -9 -27 -20 -10 -11 -24 -20 -31 -20 -7 0
-14 -3 -16 -7 -5 -11 -66 -53 -77 -53 -5 0 -11 -4 -13 -8 -1 -4 -19 -19 -38
-32 -70 -48 -227 -166 -300 -224 -41 -34 -79 -64 -85 -68 -22 -18 -179 -156
-229 -201 -104 -97 -228 -223 -365 -372 -60 -65 -234 -280 -271 -335 -13 -19
-27 -37 -30 -40 -3 -3 -26 -36 -50 -75 -25 -38 -48 -71 -52 -73 -5 -2 -8 -7
-8 -11 0 -4 -22 -44 -48 -87 -131 -219 -237 -475 -269 -654 -8 -46 -10 -285
-3 -305 4 -11 13 -41 19 -68 30 -128 101 -211 234 -276 48 -24 91 -51 97 -60
5 -10 11 -42 14 -72 11 -110 50 -192 126 -268 102 -103 188 -130 395 -126 164
4 198 8 328 40 132 33 204 58 325 112 20 9 39 17 42 18 15 3 195 97 260 135
209 120 462 310 662 497 170 159 399 399 493 517 28 34 56 67 105 123 11 12
20 27 20 32 0 5 4 11 9 13 15 6 175 230 247 349 74 119 193 356 214 424 7 22
16 45 20 50 4 6 12 26 18 45 5 19 21 65 35 103 15 37 24 67 20 67 -3 0 -1 6 5
13 14 17 85 276 96 352 28 185 26 352 -9 610 -7 56 -40 188 -55 223 -27 60
-50 127 -50 143 0 4 12 6 28 3 203 -30 401 -172 486 -349 66 -135 86 -256 82
-480 -2 -93 -9 -195 -15 -225 -6 -30 -12 -66 -15 -80 -10 -58 -48 -194 -82
-291 -111 -320 -303 -668 -582 -1059 -69 -96 -169 -228 -182 -240 -3 -3 -21
-25 -40 -50 -19 -25 -40 -49 -45 -55 -6 -5 -51 -57 -101 -114 -133 -157 -409
-430 -578 -576 -33 -27 -68 -59 -80 -70 -11 -11 -68 -57 -126 -102 -58 -45
-116 -91 -130 -102 -36 -30 -170 -124 -207 -146 -18 -11 -33 -23 -33 -27 0 -4
-4 -8 -9 -8 -5 0 -49 -25 -97 -56 -49 -31 -98 -60 -109 -65 -11 -5 -36 -19
-55 -30 -60 -36 -260 -138 -260 -132 0 3 -7 0 -15 -7 -8 -7 -32 -15 -53 -17
-31 -4 -48 3 -102 38 -146 95 -276 132 -455 132 -130 0 -213 -19 -300 -67
-113 -64 -149 -131 -110 -206 29 -56 123 -106 220 -118 88 -10 260 -4 390 15
22 3 51 7 65 8 36 4 90 14 130 25 61 16 102 21 121 15 40 -13 106 -193 125
-340 5 -37 4 -196 -1 -250 -2 -22 -6 -65 -9 -95 -3 -30 -8 -80 -11 -110 -9
-96 -20 -115 -88 -158 -34 -21 -69 -42 -77 -45 -8 -4 -44 -25 -79 -47 -34 -22
-65 -40 -67 -40 -2 0 -28 -16 -58 -35 -30 -19 -57 -35 -60 -35 -3 0 -30 -16
-60 -35 -30 -19 -59 -35 -65 -35 -5 0 -11 -3 -13 -8 -4 -9 -126 -82 -139 -82
-5 0 -9 -4 -9 -8 0 -5 -23 -19 -50 -32 -28 -13 -50 -27 -50 -32 0 -4 -4 -8 -9
-8 -22 0 -779 -476 -846 -532 -5 -5 -48 -36 -95 -70 -78 -56 -258 -195 -270
-208 -3 -3 -18 -16 -34 -28 -111 -85 -308 -279 -388 -382 -32 -41 -62 -80 -66
-85 -17 -22 -69 -122 -90 -175 -29 -73 -34 -93 -36 -170 -6 -172 110 -306 294
-339 86 -15 313 -5 415 19 22 5 40 9 40 8 0 0 20 5 45 12 25 7 50 13 55 14 61
12 258 93 369 153 44 24 83 43 88 43 4 0 8 5 8 10 0 6 5 10 11 10 6 0 38 18
71 40 33 22 62 40 65 40 8 0 189 137 259 196 135 114 262 240 374 373 25 30
50 59 55 65 65 71 236 314 317 451 153 257 296 626 334 860 3 21 8 47 10 59 2
11 7 36 10 55 10 60 12 69 23 90 11 19 55 55 96 77 154 83 468 276 658 403 88
58 166 111 175 116 9 6 21 15 28 20 6 6 22 17 34 25 64 43 285 212 339 260 99
87 118 94 251 96 63 0 123 2 133 2 20 2 48 29 136 132 36 41 72 82 80 91 9 9
39 43 68 76 29 33 65 73 80 90 15 17 69 74 118 128 168 183 458 468 589 580
33 28 64 55 70 60 28 26 216 183 246 205 18 14 38 30 44 36 23 22 248 185 298
216 29 18 55 35 58 38 9 11 164 98 205 116 51 22 142 26 177 8 41 -21 51 -48
45 -121 -10 -111 -84 -206 -234 -300 -62 -38 -243 -119 -243 -108 0 2 -15 -1
-32 -6 -18 -5 -76 -12 -128 -15 -106 -7 -153 6 -188 51 -22 28 -52 33 -52 9 0
-8 10 -36 22 -62 16 -35 22 -66 22 -122 0 -109 -23 -146 -215 -334 -87 -86
-180 -182 -208 -214 -154 -177 -161 -384 -18 -523 149 -145 374 -109 722 116
93 60 290 205 341 252 17 15 50 45 75 66 97 85 312 303 418 426 22 25 27 40
14 42 -5 0 -16 2 -26 4 -13 2 -45 -24 -100 -82 -155 -162 -310 -313 -455 -445
-23 -21 -46 -38 -52 -38 -5 0 -10 -4 -10 -8 0 -13 -286 -222 -304 -222 -3 0
-21 -11 -40 -24 -20 -13 -73 -39 -118 -58 -198 -83 -349 -85 -383 -5 -12 30
-12 111 1 157 4 14 7 28 6 31 -5 24 111 218 205 346 119 160 187 278 198 343
6 33 19 167 19 202 l1 37 45 -4 c25 -2 74 -10 110 -18 81 -18 165 -13 335 17
173 31 274 84 394 206 75 77 104 144 105 240 0 77 -7 99 -52 157 -58 78 -210
112 -342 78 -76 -20 -240 -98 -278 -132 -7 -7 -18 -13 -23 -13 -13 0 -206
-138 -319 -228 -81 -65 -350 -294 -400 -342 -9 -8 -59 -53 -110 -100 -52 -47
-107 -97 -122 -112 -37 -36 -37 -10 0 30 15 17 52 58 82 92 30 34 66 74 80 90
14 15 52 58 85 95 33 38 71 80 84 94 13 14 46 52 75 85 28 32 62 71 76 86 14
15 52 58 85 95 33 38 71 80 84 94 13 14 46 52 75 85 28 32 60 68 71 80 93 104
162 181 170 190 6 6 62 69 125 141 63 71 122 137 130 145 8 9 44 49 80 90 36
40 82 92 102 114 58 64 98 109 168 187 36 39 70 77 75 83 11 12 154 173 196
221 15 17 39 44 54 60 15 17 55 61 89 99 33 38 70 80 81 92 11 12 47 53 80 90
33 37 69 78 80 90 11 12 47 52 80 90 33 38 81 90 106 116 25 26 44 48 43 48
-2 0 7 10 19 23 12 12 60 65 107 117 126 139 235 253 426 444 353 353 468 456
621 559 23 16 49 37 59 48 17 19 14 19 -197 19 -194 0 -217 -2 -243 -19z
m-3916 -540 c30 -3 51 -30 75 -96 37 -102 66 -227 81 -350 3 -27 9 -69 14 -91
8 -45 5 -403 -4 -444 -2 -14 -7 -41 -10 -60 -10 -61 -17 -93 -33 -155 -8 -33
-16 -64 -17 -70 -1 -5 -4 -14 -7 -20 -3 -5 -12 -30 -19 -55 -7 -25 -17 -49
-22 -55 -4 -5 -8 -15 -8 -22 0 -28 -156 -326 -257 -492 -35 -57 -63 -105 -63
-108 0 -2 -5 -9 -10 -16 -6 -7 -40 -57 -76 -112 -68 -102 -183 -266 -194 -275
-3 -3 -19 -23 -35 -45 -17 -22 -32 -42 -35 -45 -3 -3 -28 -32 -55 -65 -97
-116 -332 -359 -436 -450 -324 -284 -617 -487 -895 -619 -253 -121 -448 -174
-657 -180 -115 -4 -188 8 -262 43 -62 29 -126 84 -149 130 -35 66 -56 210 -34
228 7 6 56 12 108 14 52 1 99 5 105 8 5 3 16 6 25 7 30 3 86 15 125 26 22 6
43 12 48 14 4 1 9 3 12 4 3 1 8 3 13 4 17 3 133 51 212 88 134 63 402 221 594
350 35 24 307 228 321 241 7 6 23 21 36 31 152 123 361 322 493 470 33 38 70
79 81 91 169 189 342 432 419 590 61 126 60 124 89 220 23 80 30 210 13 276
-23 97 -97 181 -187 214 -64 23 -222 28 -308 10 -117 -26 -264 -88 -379 -161
-29 -19 -55 -34 -58 -34 -2 0 -10 -5 -17 -10 -7 -6 -39 -28 -72 -50 -82 -54
-92 -61 -134 -93 -20 -15 -49 -37 -66 -50 -184 -138 -505 -446 -686 -657 -11
-14 -40 -47 -64 -75 -56 -65 -104 -124 -135 -165 -86 -113 -111 -146 -120
-157 -6 -7 -28 -38 -50 -70 -272 -393 -418 -685 -486 -971 -16 -67 -19 -73
-38 -67 -12 4 -32 9 -46 12 -56 13 -141 88 -177 157 -42 80 -61 271 -39 386 4
19 9 46 11 60 9 51 14 67 36 135 13 39 24 72 24 75 3 11 18 49 57 145 159 389
426 755 842 1153 92 89 96 93 181 167 44 39 82 73 85 76 32 36 432 339 449
339 5 0 11 3 13 8 5 10 66 52 77 52 5 0 11 3 13 8 5 12 163 112 178 112 5 0
10 4 10 9 0 5 8 11 18 14 9 4 44 22 77 41 110 63 318 162 450 213 92 36 289
100 331 107 13 3 27 7 31 9 5 3 26 8 48 11 22 4 47 9 55 11 19 6 64 12 155 20
39 4 71 8 72 9 2 1 244 -1 263 -3z m-670 -833 c130 -41 185 -137 158 -276 -4
-26 -10 -56 -12 -67 -27 -136 -166 -382 -352 -621 -121 -156 -183 -224 -378
-419 -156 -155 -219 -215 -332 -312 -12 -10 -47 -40 -78 -67 -32 -27 -69 -58
-84 -70 -15 -11 -29 -23 -32 -26 -18 -21 -288 -220 -380 -280 -90 -59 -140
-90 -146 -90 -3 0 -18 -8 -32 -19 -86 -60 -427 -219 -487 -225 -12 -2 -26 -5
-31 -9 -5 -3 -28 -8 -50 -11 -22 -4 -51 -9 -64 -11 -65 -14 -138 -17 -144 -6
-4 6 -1 33 7 59 8 26 25 83 37 127 13 44 27 87 31 95 5 8 20 44 35 80 30 75
122 262 157 317 13 21 26 45 29 53 21 57 354 517 445 615 10 11 43 49 73 85
84 100 132 151 300 319 176 177 199 198 395 360 53 43 179 134 257 185 283
185 528 262 678 214z m-1835 -3392 c39 -7 94 -23 123 -35 70 -28 167 -90 156
-100 -5 -4 -36 -16 -69 -26 -169 -53 -251 -66 -419 -70 -181 -5 -234 6 -278
57 -22 26 -25 35 -17 57 19 50 88 92 187 115 74 17 228 18 317 2z m399 -1369
c-64 -215 -132 -384 -240 -596 -98 -190 -106 -205 -113 -211 -3 -3 -13 -18
-21 -35 -8 -16 -17 -32 -20 -35 -3 -3 -32 -45 -64 -95 -51 -77 -199 -277 -231
-311 -5 -6 -30 -36 -55 -65 -47 -56 -275 -287 -345 -350 -96 -86 -280 -217
-395 -282 -109 -61 -306 -149 -364 -162 -12 -2 -57 -13 -100 -24 -44 -10 -85
-17 -92 -14 -6 2 -14 1 -17 -4 -8 -12 -205 -8 -253 6 -22 6 -54 22 -70 36 -16
14 -32 25 -35 25 -4 0 -19 25 -35 56 -23 45 -28 68 -27 117 2 54 6 88 13 107
1 3 2 8 1 12 0 4 13 40 30 80 29 68 101 184 152 246 109 130 293 308 432 417
126 99 189 148 250 190 39 27 75 53 80 58 6 4 48 35 95 67 47 33 90 63 95 67
35 28 386 253 394 253 5 0 11 3 13 8 3 7 292 187 363 226 17 9 59 34 94 56 34
22 65 40 67 40 3 0 30 16 60 35 30 19 56 35 58 35 2 0 64 35 138 78 139 82
159 92 170 86 3 -2 -9 -55 -28 -117z"/>
</g>
</svg>
