<?xml version="1.0" encoding="UTF-8"?>
<svg id="Layer_1" data-name="Layer 1" xmlns="http://www.w3.org/2000/svg" viewBox="0 0 905.84 842">
  <defs>
    <style>
      .cls-1 {
        fill: #366;
      }

      .cls-1, .cls-2 {
        stroke-width: 0px;
      }

      .cls-2 {
        fill: #fff;
      }
    </style>
  </defs>
  <path class="cls-1" d="m899.67.09c-10.82,0-21.65.17-32.47-.08-4.43-.1-7.39,1.5-10.27,4.78-77.56,88.59-155.2,177.11-232.84,265.63-44.02,50.19-88.05,100.38-132.12,150.52-23.96,27.26-51.6,50.71-78.19,75.25-4.37,4.03-9.38,7.37-14.09,11.03-34.84,27.13-72.22,50.36-110.59,72.08-1.18.67-2.52,1.05-3.22,1.33-1.38-14.49-2.21-28.58-4.17-42.51-2-14.23-7.47-27.38-16.18-39.33,1.73-.73,2.6-1.19,3.52-1.49,25.5-8.09,50.11-18.41,73.34-31.6,75.39-42.82,139.28-97.99,184.45-173.19,18.97-31.58,34.73-64.53,41.88-100.81,4.6-23.34,6.02-46.93-2.71-70.2-5.58-14.86-13-28.2-24.19-39.4-16.64-16.66-36.97-26.12-59.92-30.22-4.17-.75-7.39-2.24-9.55-6.12-1.9-3.42-3.98-6.88-6.61-9.75-15.78-17.22-36.34-24.7-58.79-27.16-28.83-3.17-57.52-.61-85.82,5.26-36.97,7.66-71.82,21.33-104.6,39.98-79.59,45.28-139.38,109.33-179.72,191.52-17.84,36.36-29.86,74.58-34.59,114.9-2.73,23.21-2.89,46.44-.76,69.76,2.32,25.36,7.92,49.88,17.42,73.43,22.17,55,60.26,95.65,112.3,123.53,2.6,1.39,4.88,2.1,6.64-1.21,1.94-3.64-1.12-4.02-3.14-5.31-13.41-8.6-27.62-16.21-40-26.11-46.15-36.88-73.19-85.22-83.18-143.33-6.91-40.22-5.46-80.22,2.95-120.04,7.41-35.08,20.35-68.14,37.32-99.63,24.07-44.68,55.16-83.9,93.2-117.42C207.32,59.24,278.09,22.52,362.26,15.53c18.28-1.52,36.44-1.71,54.6,2.07,19.14,3.98,34.74,13.5,47.69,27.77.8.88.56,2.71.83,4.28-7.48-.35-14.13-1.11-20.74-.88-16.68.58-33,3.65-48.89,8.68-34.2,10.83-65.96,26.49-95.94,46.39-46.47,30.85-88.2,66.79-123.92,109.7-18.88,22.68-35.14,47.18-47.8,73.75-11.09,23.29-18.4,47.99-13.33,74.22,2.87,14.88,11.37,26.99,26.16,32.03,7.52,2.56,9.76,6.41,9.47,13.31-.02.5.01,1,.09,1.5,2.06,13.63,9.22,24.15,20.66,31.34,7.55,4.75,16.44,5.83,25.34,6.09,25.73.75,49.88-5.76,73.06-16.23,31.81-14.37,60.29-33.61,86.45-56.88,26.69-23.74,50.87-49.71,72.71-77.76,18.59-23.88,34.43-49.63,45.32-78.22,7.1-18.64,13.72-37.37,17.67-56.91,3.35-16.59,3.2-33.39,1.45-50.19-1.5-14.38-3.35-28.64-9.59-41.94-1.27-2.71-1.99-5.68-3.14-9.02,2.65,0,4.37-.34,5.89.05,13.02,3.36,24.78,9.07,34.53,18.58,12.14,11.85,17.25,26.92,19.15,43.17,2.4,20.51.62,40.75-4.54,60.84-7.82,30.42-21.28,58.31-37.32,85-27.9,46.4-61.68,88.19-100.91,125.49-39.31,37.39-82.04,70-131.54,93.03-5.86,2.73-10.17,3.49-15.94-1.04-15.54-12.19-34-15.02-53.19-13.89-10.29.61-19.91,3.71-28.3,9.82-10.25,7.46-9.6,18.17,1.41,24.38,7.74,4.37,16.3,5.61,25.02,5.37,18.47-.49,36.85-2.27,54.72-7,6.12-1.62,7.97,1.12,10.04,5.43,6.55,13.62,9.15,28.17,8.74,43.05-.34,12.26-2.32,24.47-3.31,36.72-.35,4.33-2.42,6.83-6.01,8.96-38.1,22.66-76.44,44.93-114.08,68.33-37.29,23.18-73.54,48-105.68,78.21-15.34,14.42-29.22,30.02-36.33,50.5-7.44,21.45,2.02,41.09,24.05,46.49,9.29,2.28,19.54,2.17,29.17,1.24,22.62-2.17,43.91-9.41,64.1-19.82,41.55-21.42,75.2-52.13,103.37-89.04,30.63-40.14,52.46-84.36,59.35-134.94.9-6.57,3.67-9.68,8.96-12.66,41.75-23.53,82.24-49.03,120.03-78.64,6.02-4.72,11.31-11.4,18.12-13.8,6.82-2.41,15.14-.79,22.79-.56,3.74.11,6.16-1.32,8.51-4.05,33.64-38.87,67.89-77.14,107.01-110.71,22.58-19.38,45.44-38.4,70.93-53.92,7.69-4.68,15.33-9.74,24.48-11.03,7.84-1.1,13.99,1.71,14.35,8.24.21,3.88-.2,8.03-1.39,11.72-2.79,8.58-9.41,14.38-16.34,19.53-12.87,9.57-27.34,15.62-43.38,16.96-8.24.68-17.13,2.02-23.03-6.57-.51-.74-2.24-.65-3.41-.94,0,1.65-.64,3.68.09,4.89,8.47,14.25,3.93,27.32-5.77,36.88-8.74,8.62-17.62,17.1-26.31,25.78-10.78,10.78-19.53,22.35-18.4,39.07,1.03,15.15,14.78,29.16,30,29.13,14.9-.03,27.99-5.93,40.55-13.14,29.49-16.92,54.99-38.87,78.44-63.3,6.62-6.89,12.86-14.14,19.42-21.39-3.84-3.14-6.32-1.65-8.66.85-6.02,6.42-11.88,13-18.09,19.23-20.63,20.74-41.67,41.04-66.76,56.5-12.74,7.85-25.96,14.62-41.22,15.88-11.96.99-17.44-2.91-16.2-14.41.3-2.8.6-5.64,1.29-8.36,3.44-13.57,11.82-24.4,20-35.29,8.57-11.42,17.61-22.69,20.72-36.99,1.6-7.33,1.46-15.04,2.12-22.74,1.21.09,2.71.07,4.16.33,6.77,1.2,13.55,3.62,20.27,3.46,9.64-.24,19.3-1.97,28.82-3.75,15-2.81,27.25-10.75,37.23-22.09,7.12-8.09,9.78-17.81,7.73-28.38-2.02-10.39-13.45-18.12-26.59-18.38-11.92-.24-22.43,4.47-32.53,10.13-28.17,15.76-52.24,36.95-76.31,58.11-10.08,8.86-19.9,18-29.84,27.02-.68.74-1.36,1.47-2.04,2.21-.32-.23-.65-.46-.97-.68.42-.81.84-1.62,1.26-2.43,5.2-5.82,10.42-11.63,15.61-17.47,30.25-34.02,60.45-68.08,90.76-102.05,30.34-34,60.85-67.86,91.18-101.88,37.97-42.58,75.29-85.77,116.23-125.59,17.99-17.5,35.38-35.76,57.05-49.02.7-.43,1.02-1.48,2.15-3.21-2.67,0-4.42,0-6.17,0Zm-413.31,143.61c-1.41,23.06-7.21,45.11-17.44,65.71-12.92,26.03-27.92,50.84-44.74,74.66-18.83,26.66-40.16,51.03-64.32,72.68-29.7,26.62-61.55,50.5-98.26,67.01-18.09,8.13-36.9,13.92-56.79,14.86-12.31.58-24.68-.37-35.18-8.18-10.26-7.63-12.2-18.9-12.78-30.61-.04-.86,1.73-2.63,2.62-2.6,34.98.96,64.51-14.66,93.21-31.63,56.11-33.18,104.15-75.71,143.57-127.8,12.71-16.8,23.85-34.46,29.84-54.88,2.8-9.53,3.59-19.24,1.2-29.08-2.92-12.04-13.48-20.64-25.8-22.18-20.13-2.52-37.99,3.73-55.01,13.29-36.59,20.56-67.73,47.93-96.25,78.43-28.89,30.9-54.64,64.21-75.41,101.15-11.9,21.16-19.63,37.62-24.81,64.33-12.17-.66-24.12-11.16-27.39-23.79-4.4-17.02-2.05-33.77,2.83-50.15,3.12-10.47,7.26-20.7,11.74-30.68,19.47-43.38,49.85-78.75,83.96-110.89,18.96-17.86,39.06-34.81,60.25-49.92,31.64-22.56,65.27-42.12,102.23-55.01,23.47-8.18,47.47-13.88,72.62-12.74,1.81.08,3.64-.33,5.46-.37,10.27-.26,12.14,1.26,15.27,11.11,8.02,25.18,10.97,50.96,9.36,77.29Zm-329.55,245.96c2.63-9,4.63-18.24,8-26.95,17.37-44.82,45.24-82.96,76.62-118.73,22.86-26.06,47.47-50.41,75.26-71.24,17.92-13.44,36.63-25.78,58.42-32.28,8.32-2.48,16.92-4.06,25.54-1.83,13.92,3.62,19.67,13.36,17.37,27.73-2.97,18.47-11.84,34.23-22.07,49.37-26.57,39.32-60.35,71.88-96.41,102.24-24.05,20.25-49.44,38.62-77.31,53.32-13.44,7.09-27.14,13.68-42.13,16.85-7.06,1.49-14.27,2.24-21.42,3.33l-1.89-1.81Zm47.39,112.13c-7.11.37-14.27.38-21.37-.05-3.36-.2-6.86-1.35-9.89-2.89-6.75-3.42-7.05-9.78-.79-14.11,8.2-5.66,17.59-7.44,27.33-7.68,16.55-.42,32.29,2.16,45.67,12.99.51.42,1.11.73,2.8,1.84-15.26,5.18-29.16,9.14-43.75,9.9Zm50.75,124.91c-19.02,55.85-49.84,104.3-91.8,145.67-23.04,22.71-48.83,41.43-79.1,53.44-16.87,6.69-34.31,10.26-52.53,8.21-13.38-1.51-22.4-13.39-21.04-26.81,1.86-18.37,11.81-32.59,23.27-45.98,19.3-22.54,42.49-40.71,66.33-58.07,50.21-36.56,103.71-67.89,157.43-98.85.99-.57,2.06-.98,3.1-1.47l1.3.7c-2.3,7.72-4.35,15.54-6.95,23.16Z"/>
  <polyline class="cls-2" points="531.59 401.73 530.96 401.27 532.85 399.3 532.85 401.17 532.85 401.73 534.28 398.79 532.56 402.41"/>
</svg>